<svg width="159" height="159" viewBox="0 0 159 159" fill="none" xmlns="http://www.w3.org/2000/svg">
<g id="dots">
<circle id="Ellipse 1" cx="3" cy="3" r="3" fill="#FBA229"/>
<circle id="Ellipse 2" cx="20" cy="3" r="3" fill="#FBA229"/>
<circle id="Ellipse 3" cx="37" cy="3" r="3" fill="#FBA229"/>
<circle id="Ellipse 4" cx="54" cy="3" r="3" fill="#FBA229"/>
<circle id="Ellipse 5" cx="71" cy="3" r="3" fill="#FBA229"/>
<circle id="Ellipse 6" cx="88" cy="3" r="3" fill="#FBA229"/>
<circle id="Ellipse 7" cx="105" cy="3" r="3" fill="#FBA229"/>
<circle id="Ellipse 8" cx="122" cy="3" r="3" fill="#FBA229"/>
<circle id="Ellipse 9" cx="139" cy="3" r="3" fill="#FBA229"/>
<circle id="Ellipse 10" cx="156" cy="3" r="3" fill="#FBA229"/>
<circle id="Ellipse 11" cx="3" cy="20" r="3" fill="#FBA229"/>
<circle id="Ellipse 12" cx="20" cy="20" r="3" fill="#FBA229"/>
<circle id="Ellipse 13" cx="37" cy="20" r="3" fill="#FBA229"/>
<circle id="Ellipse 14" cx="54" cy="20" r="3" fill="#FBA229"/>
<circle id="Ellipse 15" cx="71" cy="20" r="3" fill="#FBA229"/>
<circle id="Ellipse 16" cx="88" cy="20" r="3" fill="#FBA229"/>
<circle id="Ellipse 17" cx="105" cy="20" r="3" fill="#FBA229"/>
<circle id="Ellipse 18" cx="122" cy="20" r="3" fill="#FBA229"/>
<circle id="Ellipse 19" cx="139" cy="20" r="3" fill="#FBA229"/>
<circle id="Ellipse 20" cx="156" cy="20" r="3" fill="#FBA229"/>
<circle id="Ellipse 21" cx="3" cy="37" r="3" fill="#FBA229"/>
<circle id="Ellipse 22" cx="20" cy="37" r="3" fill="#FBA229"/>
<circle id="Ellipse 23" cx="37" cy="37" r="3" fill="#FBA229"/>
<circle id="Ellipse 24" cx="54" cy="37" r="3" fill="#FBA229"/>
<circle id="Ellipse 25" cx="71" cy="37" r="3" fill="#FBA229"/>
<circle id="Ellipse 26" cx="88" cy="37" r="3" fill="#FBA229"/>
<circle id="Ellipse 27" cx="105" cy="37" r="3" fill="#FBA229"/>
<circle id="Ellipse 28" cx="122" cy="37" r="3" fill="#FBA229"/>
<circle id="Ellipse 29" cx="139" cy="37" r="3" fill="#FBA229"/>
<circle id="Ellipse 30" cx="156" cy="37" r="3" fill="#FBA229"/>
<circle id="Ellipse 31" cx="3" cy="54" r="3" fill="#FBA229"/>
<circle id="Ellipse 32" cx="20" cy="54" r="3" fill="#FBA229"/>
<circle id="Ellipse 33" cx="37" cy="54" r="3" fill="#FBA229"/>
<circle id="Ellipse 34" cx="54" cy="54" r="3" fill="#FBA229"/>
<circle id="Ellipse 35" cx="71" cy="54" r="3" fill="#FBA229"/>
<circle id="Ellipse 36" cx="88" cy="54" r="3" fill="#FBA229"/>
<circle id="Ellipse 37" cx="105" cy="54" r="3" fill="#FBA229"/>
<circle id="Ellipse 38" cx="122" cy="54" r="3" fill="#FBA229"/>
<circle id="Ellipse 39" cx="139" cy="54" r="3" fill="#FBA229"/>
<circle id="Ellipse 40" cx="156" cy="54" r="3" fill="#FBA229"/>
<circle id="Ellipse 41" cx="3" cy="71" r="3" fill="#FBA229"/>
<circle id="Ellipse 42" cx="20" cy="71" r="3" fill="#FBA229"/>
<circle id="Ellipse 43" cx="37" cy="71" r="3" fill="#FBA229"/>
<circle id="Ellipse 44" cx="54" cy="71" r="3" fill="#FBA229"/>
<circle id="Ellipse 45" cx="71" cy="71" r="3" fill="#FBA229"/>
<circle id="Ellipse 46" cx="88" cy="71" r="3" fill="#FBA229"/>
<circle id="Ellipse 47" cx="105" cy="71" r="3" fill="#FBA229"/>
<circle id="Ellipse 48" cx="122" cy="71" r="3" fill="#FBA229"/>
<circle id="Ellipse 49" cx="139" cy="71" r="3" fill="#FBA229"/>
<circle id="Ellipse 50" cx="156" cy="71" r="3" fill="#FBA229"/>
<circle id="Ellipse 51" cx="3" cy="88" r="3" fill="#FBA229"/>
<circle id="Ellipse 52" cx="20" cy="88" r="3" fill="#FBA229"/>
<circle id="Ellipse 53" cx="37" cy="88" r="3" fill="#FBA229"/>
<circle id="Ellipse 54" cx="54" cy="88" r="3" fill="#FBA229"/>
<circle id="Ellipse 55" cx="71" cy="88" r="3" fill="#FBA229"/>
<circle id="Ellipse 56" cx="88" cy="88" r="3" fill="#FBA229"/>
<circle id="Ellipse 57" cx="105" cy="88" r="3" fill="#FBA229"/>
<circle id="Ellipse 58" cx="122" cy="88" r="3" fill="#FBA229"/>
<circle id="Ellipse 59" cx="139" cy="88" r="3" fill="#FBA229"/>
<circle id="Ellipse 60" cx="156" cy="88" r="3" fill="#FBA229"/>
<circle id="Ellipse 61" cx="3" cy="105" r="3" fill="#FBA229"/>
<circle id="Ellipse 62" cx="20" cy="105" r="3" fill="#FBA229"/>
<circle id="Ellipse 63" cx="37" cy="105" r="3" fill="#FBA229"/>
<circle id="Ellipse 64" cx="54" cy="105" r="3" fill="#FBA229"/>
<circle id="Ellipse 65" cx="71" cy="105" r="3" fill="#FBA229"/>
<circle id="Ellipse 66" cx="88" cy="105" r="3" fill="#FBA229"/>
<circle id="Ellipse 67" cx="105" cy="105" r="3" fill="#FBA229"/>
<circle id="Ellipse 68" cx="122" cy="105" r="3" fill="#FBA229"/>
<circle id="Ellipse 69" cx="139" cy="105" r="3" fill="#FBA229"/>
<circle id="Ellipse 70" cx="156" cy="105" r="3" fill="#FBA229"/>
<circle id="Ellipse 71" cx="3" cy="122" r="3" fill="#FBA229"/>
<circle id="Ellipse 72" cx="20" cy="122" r="3" fill="#FBA229"/>
<circle id="Ellipse 73" cx="37" cy="122" r="3" fill="#FBA229"/>
<circle id="Ellipse 74" cx="54" cy="122" r="3" fill="#FBA229"/>
<circle id="Ellipse 75" cx="71" cy="122" r="3" fill="#FBA229"/>
<circle id="Ellipse 76" cx="88" cy="122" r="3" fill="#FBA229"/>
<circle id="Ellipse 77" cx="105" cy="122" r="3" fill="#FBA229"/>
<circle id="Ellipse 78" cx="122" cy="122" r="3" fill="#FBA229"/>
<circle id="Ellipse 79" cx="139" cy="122" r="3" fill="#FBA229"/>
<circle id="Ellipse 80" cx="156" cy="122" r="3" fill="#FBA229"/>
<circle id="Ellipse 81" cx="3" cy="139" r="3" fill="#FBA229"/>
<circle id="Ellipse 82" cx="20" cy="139" r="3" fill="#FBA229"/>
<circle id="Ellipse 83" cx="37" cy="139" r="3" fill="#FBA229"/>
<circle id="Ellipse 84" cx="54" cy="139" r="3" fill="#FBA229"/>
<circle id="Ellipse 85" cx="71" cy="139" r="3" fill="#FBA229"/>
<circle id="Ellipse 86" cx="88" cy="139" r="3" fill="#FBA229"/>
<circle id="Ellipse 87" cx="105" cy="139" r="3" fill="#FBA229"/>
<circle id="Ellipse 88" cx="122" cy="139" r="3" fill="#FBA229"/>
<circle id="Ellipse 89" cx="139" cy="139" r="3" fill="#FBA229"/>
<circle id="Ellipse 90" cx="156" cy="139" r="3" fill="#FBA229"/>
<circle id="Ellipse 91" cx="3" cy="156" r="3" fill="#FBA229"/>
<circle id="Ellipse 92" cx="20" cy="156" r="3" fill="#FBA229"/>
<circle id="Ellipse 93" cx="37" cy="156" r="3" fill="#FBA229"/>
<circle id="Ellipse 94" cx="54" cy="156" r="3" fill="#FBA229"/>
<circle id="Ellipse 95" cx="71" cy="156" r="3" fill="#FBA229"/>
<circle id="Ellipse 96" cx="88" cy="156" r="3" fill="#FBA229"/>
<circle id="Ellipse 97" cx="105" cy="156" r="3" fill="#FBA229"/>
<circle id="Ellipse 98" cx="122" cy="156" r="3" fill="#FBA229"/>
<circle id="Ellipse 99" cx="139" cy="156" r="3" fill="#FBA229"/>
<circle id="Ellipse 100" cx="156" cy="156" r="3" fill="#FBA229"/>
</g>
</svg>
